<svg
  width="64"
  height="64"
  viewBox="0 0 64 64"
  fill="none"
  xmlns="http://www.w3.org/2000/svg"
>
  <rect width="64" height="64" rx="12" fill="#242742" />
  <path
    d="M32 39C34.7614 39 37 36.7614 37 34C37 31.2386 34.7614 29 32 29C29.2386 29 27 31.2386 27 34C27 36.7614 29.2386 39 32 39Z"
    fill="#EFF0FB"
  />
  <path
    fill-rule="evenodd"
    clip-rule="evenodd"
    d="M60 34C60 34 59.6657 33.6534 59.0391 33.0733C58.544 32.6151 57.8665 32.0112 57.0271 31.3175C53.6013 28.4861 47.4794 24.1579 40.0633 22.1265L32 6L23.9367 22.1265C16.5206 24.1579 10.3987 28.4861 6.97291 31.3175C6.1335 32.0112 5.45596 32.6151 4.9609 33.0734C4.33424 33.6534 4 34 4 34C4 34 4.33408 34.3464 4.96043 34.9262C5.45553 35.3845 6.13323 35.9885 6.97291 36.6825C8.72436 38.1301 11.1805 39.9689 14.154 41.6919L8 54H56L49.846 41.6919C52.8195 39.9689 55.2756 38.1301 57.0271 36.6825C57.8668 35.9885 58.5445 35.3845 59.0396 34.9262C59.6659 34.3464 60 34 60 34ZM53.9875 34C53.3984 33.5258 52.7354 33.0142 52.0057 32.4841C49.6336 30.7609 46.6343 28.8982 43.2388 27.462C44.3585 29.3827 45 31.6164 45 34C45 36.3835 44.3585 38.6173 43.2388 40.5379C43.6997 40.343 44.1545 40.1397 44.6027 39.9292L46.2221 39.1688L47.8405 38.231C50.3148 36.7972 52.4092 35.2705 53.9875 34ZM33.426 21.0365C32.9537 21.0124 32.4782 21 32 21C31.5218 21 31.0463 21.0124 30.574 21.0365C30.0067 21.0655 29.4438 21.1112 28.8859 21.1725L32 14.9443L35.1141 21.1725C34.5562 21.1112 33.9933 21.0655 33.426 21.0365ZM19 34C19 31.6164 19.6415 29.3827 20.7612 27.462C17.3657 28.8982 14.3664 30.7609 11.9943 32.4841C11.2646 33.0142 10.6016 33.5258 10.0125 34C11.5908 35.2705 13.6852 36.7972 16.1595 38.231L17.7779 39.1688L19.3973 39.9292C19.8455 40.1397 20.3003 40.343 20.7612 40.5379C19.6415 38.6173 19 36.3835 19 34ZM24.412 46C26.8251 46.624 29.3702 47 32 47C34.6298 47 37.1749 46.624 39.588 46C41.97 45.384 44.2234 44.5264 46.3028 43.5499L49.5279 50H14.4721L17.6972 43.5499C19.7766 44.5264 22.03 45.384 24.412 46ZM41 34C41 38.9706 36.9706 43 32 43C27.0294 43 23 38.9706 23 34C23 29.0294 27.0294 25 32 25C36.9706 25 41 29.0294 41 34Z"
    fill="#EFF0FB"
  />
</svg>
